Coordinates
version=1
nRows=11
nColumns=42
inDegrees=yes

Units are S.I. units (second, meters, Newtons, ...)
If the header above contains a line with 'inDegrees', this indicates whether rotational values are in degrees (yes) or radians (no).

endheader
time	pelvis_tilt	pelvis_list	pelvis_rotation	pelvis_tx	pelvis_ty	pelvis_tz	hip_flexion_r	hip_adduction_r	hip_rotation_r	knee_angle_r	knee_adduction_r	knee_angle_r_beta	ankle_angle_r	subtalar_angle_r	mtp_angle_r	hip_flexion_l	hip_adduction_l	hip_rotation_l	knee_angle_l	knee_adduction_l	knee_angle_l_beta	ankle_angle_l	subtalar_angle_l	mtp_angle_l	lumbar_extension	lumbar_bending	lumbar_rotation	arm_flex_r	arm_add_r	arm_rot_r	elbow_flex_r	pro_sup_r	wrist_flex_r	wrist_dev_r	arm_flex_l	arm_add_l	arm_rot_l	elbow_flex_l	pro_sup_l	wrist_flex_l	wrist_dev_l
      0.62000000	     20.75309371	      2.78018441	      1.24595519	     -1.32384888	      0.90669369	     -0.00186762	    -15.43205193	     -0.25733058	    -24.05509620	     28.81621076	     -4.90721089	      0.50293776	     29.34801342	     18.39370963	     -7.79805367	      8.97251569	      1.66884798	     -2.59748309	     34.48833652	     -0.49889776	      0.60193503	      9.00761030	    -14.96358752	     -7.79805367	    -44.39279504	     -2.51469671	     -0.17203790	     19.93117710	     -9.88728477	     -7.91077854	     38.50267594	     90.00000001	      0.00000000	      0.00000000	      8.09298684	     -4.81530596	    -29.85430751	     37.73564436	     90.00000001	      0.00000000	      0.00000000
      0.63000000	     20.90228081	      2.71951393	      1.12649201	     -1.31570113	      0.90579085	     -0.00206023	    -16.36971108	     -0.31618373	    -23.87527168	     28.58881169	     -4.56757967	      0.49896889	     29.84702346	     18.54071520	     -7.79117117	      8.88833581	      1.64349792	     -2.59338166	     31.68678813	     -0.33825047	      0.55303878	      9.09934717	    -13.96500972	     -7.79117117	    -44.47118681	     -2.51018234	     -0.12987535	     20.45197792	     -9.92199453	     -7.25706826	     38.65195911	     90.00000001	      0.00000000	      0.00000000	      7.96298540	     -4.72897746	    -30.03496275	     37.67901992	     90.00000001	      0.00000000	      0.00000000
      0.64000000	     20.95781860	      2.59786481	      0.98791773	     -1.30747111	      0.90465391	     -0.00224072	    -17.12583725	     -0.29657574	    -23.96632403	     28.41591536	     -4.49807396	      0.49595128	     30.34751404	     19.26116131	     -7.76320957	      8.95794490	      1.51412712	     -2.83758725	     29.12935468	     -0.25359675	      0.50840315	      9.34299083	    -12.63856836	     -7.76320957	    -44.44864595	     -2.47521316	     -0.14010865	     20.90967646	    -10.31218124	     -4.65725997	     38.80037511	     90.00000001	      0.00000000	      0.00000000	      7.89997473	     -4.50793230	    -31.19399498	     37.53341532	     90.00000001	      0.00000000	      0.00000000
      0.65000000	     20.99406159	      2.48787734	      0.85587864	     -1.29919851	      0.90348012	     -0.00244154	    -17.89100830	     -0.25944595	    -23.76535330	     28.22791947	     -4.32115963	      0.49267014	     30.69618894	     19.21602641	     -7.75627654	      8.99502551	      1.41299344	     -2.91003087	     26.66412121	     -0.10997362	      0.46537671	      9.34498523	    -11.68340351	     -7.75627654	    -44.41763615	     -2.45011107	     -0.04660860	     21.36617716	    -10.27227541	     -4.43340815	     39.05135633	     90.00000001	      0.00000000	      0.00000000	      7.73557527	     -4.44633866	    -31.27165557	     37.48085857	     90.00000001	      0.00000000	      0.00000000
      0.66000000	     21.05097406	      2.37843747	      0.74259774	     -1.29080804	      0.90229931	     -0.00274755	    -18.69384809	     -0.23001157	    -23.62401396	     28.02710960	     -4.15223756	      0.48916534	     31.04232862	     19.27662783	     -7.74984472	      8.99633504	      1.31568274	     -2.99552518	     24.38751025	      0.02437424	      0.42564235	      9.34413249	    -10.75623872	     -7.74984472	    -44.41537070	     -2.41055330	      0.00963387	     21.79557342	    -10.26138305	     -4.10160650	     39.21834041	     90.00000001	      0.00000000	      0.00000000	      7.57075235	     -4.36443076	    -31.39054257	     37.39869558	     90.00000001	      0.00000000	      0.00000000
      0.67000000	     21.07959412	      2.23686746	      0.59743926	     -1.28230010	      0.90099036	     -0.00304112	    -19.44042288	     -0.16555644	    -23.53653331	     27.85962272	     -4.08725747	      0.48624214	     31.34509571	     19.35103249	     -7.74496845	      9.05852701	      1.17798533	     -3.15978939	     22.43054641	      0.13088735	      0.39148689	      9.31366179	    -10.05016084	     -7.74496845	    -44.34452939	     -2.35993115	      0.13489342	     22.22681602	    -10.19832010	     -3.77333781	     39.38163559	     90.00000001	      0.00000000	      0.00000000	      7.38354625	     -4.29222958	    -31.50688715	     37.31293996	     90.00000001	      0.00000000	      0.00000000
      0.68000000	     21.16935126	      2.13666790	      0.50505942	     -1.27366395	      0.89974538	     -0.00350180	    -20.31291146	     -0.17651882	    -23.52080300	     27.65059892	     -3.90831721	      0.48259399	     31.65854680	     19.59762831	     -7.73979772	      9.03149577	      1.11725398	     -3.19528254	     20.70285084	      0.23820036	      0.36133291	      9.23390891	     -9.52952352	     -7.73979772	    -44.34409278	     -2.31002087	      0.16500686	     22.63093160	    -10.19721216	     -3.29529416	     39.48096762	     90.00000001	      0.00000000	      0.00000000	      7.23151713	     -4.21237934	    -31.73859795	     37.17796224	     90.00000001	      0.00000000	      0.00000000
      0.69000000	     21.21905586	      2.00196166	      0.38537934	     -1.26489350	      0.89841284	     -0.00398530	    -21.08933176	     -0.11740461	    -23.53523698	     27.49942212	     -3.91347344	      0.47995546	     31.91379832	     19.68872082	     -7.73656214	      9.11913289	      0.98654018	     -3.45188511	     19.41055785	      0.34368459	      0.33877814	      9.19926624	     -9.31903124	     -7.73656214	    -44.28982006	     -2.23715139	      0.23397783	     22.99220772	    -10.15421439	     -2.99610591	     39.61650675	     90.00000001	      0.00000000	      0.00000000	      7.04652863	     -4.14161112	    -31.87562063	     37.07371467	     90.00000001	      0.00000000	      0.00000000
      0.70000000	     21.34118574	      1.90295301	      0.29234942	     -1.25596733	      0.89717413	     -0.00459003	    -22.00667907	     -0.13982951	    -23.56594978	     27.31006537	     -3.76618536	      0.47665056	     32.17300953	     19.89370053	     -7.73351962	      9.08068983	      0.95003610	     -3.50558504	     18.34970755	      0.41571745	      0.32026281	      9.09808210	     -9.30779892	     -7.73351962	    -44.30310746	     -2.18794710	      0.27153821	     23.30279458	    -10.13084128	     -2.62664748	     39.70185807	     90.00000001	      0.00000000	      0.00000000	      6.85815503	     -4.04773126	    -32.07519351	     36.92669736	     90.00000001	      0.00000000	      0.00000000
      0.71000000	     21.43469066	      1.80581524	      0.21506402	     -1.24693772	      0.89589196	     -0.00531419	    -22.88389338	     -0.18273830	    -23.61524315	     27.16402061	     -3.62181543	      0.47410160	     32.34506042	     20.13629781	     -7.72915281	      9.08762671	      0.93708730	     -3.48010103	     17.62489717	      0.48641061	      0.30761249	      8.92605869	     -9.64794051	     -7.72915281	    -44.27745672	     -2.11240568	      0.30369215	     23.56529283	    -10.14970786	     -2.10924895	     39.79613868	     90.00000001	      0.00000000	      0.00000000	      6.68014492	     -3.93476100	    -32.37112368	     36.78827664	     90.00000001	      0.00000000	      0.00000000
      0.72000000	     21.52781826	      1.70666010	      0.14475584	     -1.23773418	      0.89458181	     -0.00607574	    -23.73550166	     -0.20003292	    -23.76895809	     27.06232642	     -3.59547409	      0.47232670	     32.48809271	     20.22879110	     -7.72713710	      9.17289194	      0.89425754	     -3.63203950	     17.37385721	      0.56863939	      0.30323101	      8.90219284	    -10.13706635	     -7.72713710	    -44.24597199	     -2.05232625	      0.33884230	     23.78172548	    -10.12297530	     -1.85304586	     39.87792532	     90.00000001	      0.00000000	      0.00000000	      6.48081133	     -3.84466252	    -32.54334016	     36.65135247	     90.00000001	      0.00000000	      0.00000000
